<?xml version="1.0" encoding="UTF-8" standalone="no"?>
<svg
    xmlns:inkscape="http://www.inkscape.org/namespaces/inkscape"
    xmlns:rdf="http://www.w3.org/1999/02/22-rdf-syntax-ns#"
    xmlns="http://www.w3.org/2000/svg"
    xmlns:sodipodi="http://sodipodi.sourceforge.net/DTD/sodipodi-0.dtd"
    xmlns:i="http://ns.adobe.com/AdobeIllustrator/10.0/"
    xmlns:cc="http://creativecommons.org/ns#"
    xmlns:xlink="http://www.w3.org/1999/xlink"
    xmlns:dc="http://purl.org/dc/elements/1.1/"
    xmlns:svg="http://www.w3.org/2000/svg"
    xmlns:ns1="http://sozi.baierouge.fr"
    class="Trash"
    sodipodi:docname="trash.svg"
    viewBox="0 0 610 610"
    version="1.1"
  >
  <g
      id="position"
      transform="translate(5 -397.36)"
    >
        <rect
            id="stroke"
            style="stroke-linejoin:round;stroke:grey;stroke-width:10;fill:none"
            ry="1.5381"
            height="600"
            width="600"
            y="402.36"
            x="0"
        />
        <path
            id="trash-color"
            style="fill:grey"
            transform="matrix(7.1416 0 0 7.646 -462.8 -3200.2)"
            d="m106.11 478.36c-6.5901 0-12.108 1.5984-13.552 3.7361h27.104c-1.4442-2.1377-6.9621-3.7361-13.552-3.7361zm-34.414 5.2213c-0.98697 0-1.7868 0.79987-1.7868 1.7868v2.6454c0 0.98697 0.79987 1.7868 1.7868 1.7868h66.484c0.98697 0 1.7868-0.79987 1.7868-1.7868v-2.6454c0-0.98697-0.79987-1.7868-1.7868-1.7868h-66.484zm8.7021 7.4954 6.3816 52.677h38.429l5.9871-52.677h-50.797z"
        />
  </g>
</svg>
